<?xml version="1.0" encoding="UTF-8" standalone="no"?>
<!DOCTYPE svg PUBLIC "-//W3C//DTD SVG 1.1//EN"
 "http://www.w3.org/Graphics/SVG/1.1/DTD/svg11.dtd">
<!-- Generated by graphviz version 2.26.3 (20100126.1600)
 -->
<!-- Title: controllers_diagram Pages: 1 -->
<svg width="723pt" height="818pt"
 viewBox="0.00 0.00 723.00 818.00" xmlns="http://www.w3.org/2000/svg" xmlns:xlink="http://www.w3.org/1999/xlink">
<g id="graph1" class="graph" transform="scale(1 1) rotate(0) translate(4 814)">
<title>controllers_diagram</title>
<polygon fill="white" stroke="white" points="-4,5 -4,-814 720,-814 720,5 -4,5"/>
<!-- _diagram_info -->
<g id="node1" class="node"><title>_diagram_info</title>
<text text-anchor="start" x="369" y="-63.3" font-family="Times,serif" font-size="13.00">Controllers diagram</text>
<text text-anchor="start" x="369" y="-49.3" font-family="Times,serif" font-size="13.00">Date: Sep 11 2011 &#45; 14:19</text>
<text text-anchor="start" x="369" y="-35.3" font-family="Times,serif" font-size="13.00">Migration version: 20110716215721</text>
<text text-anchor="start" x="369" y="-21.3" font-family="Times,serif" font-size="13.00">Generated by RailRoady 1.0.2</text>
<text text-anchor="start" x="369" y="-7.3" font-family="Times,serif" font-size="13.00">http://railroady.prestonlee.com</text>
</g>
<!-- ApplicationController -->
<g id="node2" class="node"><title>ApplicationController</title>
<polyline fill="none" stroke="black" points="13,-625.5 189,-625.5 "/>
<path fill="none" stroke="black" d="M189,-625.5C195,-625.5 201,-631.5 201,-637.5"/>
<polyline fill="none" stroke="black" points="201,-637.5 201,-796.5 "/>
<path fill="none" stroke="black" d="M201,-796.5C201,-802.5 195,-808.5 189,-808.5"/>
<polyline fill="none" stroke="black" points="189,-808.5 13,-808.5 "/>
<path fill="none" stroke="black" d="M13,-808.5C7,-808.5 1,-802.5 1,-796.5"/>
<polyline fill="none" stroke="black" points="1,-796.5 1,-637.5 "/>
<path fill="none" stroke="black" d="M1,-637.5C1,-631.5 7,-625.5 13,-625.5"/>
<text text-anchor="middle" x="101" y="-791.9" font-family="Times,serif" font-size="14.00">ApplicationController</text>
<polyline fill="none" stroke="black" points="1,-785.5 201,-785.5 "/>
<text text-anchor="start" x="9" y="-768.9" font-family="Times,serif" font-size="14.00">_one_time_conditions_valid_8?</text>
<text text-anchor="start" x="9" y="-753.9" font-family="Times,serif" font-size="14.00">current_user</text>
<text text-anchor="start" x="9" y="-738.9" font-family="Times,serif" font-size="14.00">find_proyecto</text>
<text text-anchor="start" x="9" y="-723.9" font-family="Times,serif" font-size="14.00">find_userstory</text>
<text text-anchor="start" x="9" y="-708.9" font-family="Times,serif" font-size="14.00">forzar_login</text>
<text text-anchor="start" x="9" y="-693.9" font-family="Times,serif" font-size="14.00">redirect_to_stored</text>
<polyline fill="none" stroke="black" points="1,-687.5 201,-687.5 "/>
<polyline fill="none" stroke="black" points="1,-663.5 201,-663.5 "/>
<text text-anchor="start" x="9" y="-646.9" font-family="Times,serif" font-size="14.00">_layout</text>
<text text-anchor="start" x="9" y="-631.9" font-family="Times,serif" font-size="14.00">_run_process_action_callbacks</text>
</g>
<!-- ProyectosController -->
<g id="node3" class="node"><title>ProyectosController</title>
<polyline fill="none" stroke="black" points="253,-433.5 437,-433.5 "/>
<path fill="none" stroke="black" d="M437,-433.5C443,-433.5 449,-439.5 449,-445.5"/>
<polyline fill="none" stroke="black" points="449,-445.5 449,-634.5 "/>
<path fill="none" stroke="black" d="M449,-634.5C449,-640.5 443,-646.5 437,-646.5"/>
<polyline fill="none" stroke="black" points="437,-646.5 253,-646.5 "/>
<path fill="none" stroke="black" d="M253,-646.5C247,-646.5 241,-640.5 241,-634.5"/>
<polyline fill="none" stroke="black" points="241,-634.5 241,-445.5 "/>
<path fill="none" stroke="black" d="M241,-445.5C241,-439.5 247,-433.5 253,-433.5"/>
<text text-anchor="middle" x="345" y="-629.9" font-family="Times,serif" font-size="14.00">ProyectosController</text>
<polyline fill="none" stroke="black" points="241,-623.5 449,-623.5 "/>
<text text-anchor="start" x="249" y="-606.9" font-family="Times,serif" font-size="14.00">_one_time_conditions_valid_10?</text>
<text text-anchor="start" x="249" y="-591.9" font-family="Times,serif" font-size="14.00">create</text>
<text text-anchor="start" x="249" y="-576.9" font-family="Times,serif" font-size="14.00">destroy</text>
<text text-anchor="start" x="249" y="-561.9" font-family="Times,serif" font-size="14.00">edit</text>
<text text-anchor="start" x="249" y="-546.9" font-family="Times,serif" font-size="14.00">index</text>
<text text-anchor="start" x="249" y="-531.9" font-family="Times,serif" font-size="14.00">new</text>
<text text-anchor="start" x="249" y="-516.9" font-family="Times,serif" font-size="14.00">show</text>
<text text-anchor="start" x="249" y="-501.9" font-family="Times,serif" font-size="14.00">update</text>
<polyline fill="none" stroke="black" points="241,-495.5 449,-495.5 "/>
<polyline fill="none" stroke="black" points="241,-471.5 449,-471.5 "/>
<text text-anchor="start" x="249" y="-454.9" font-family="Times,serif" font-size="14.00">_layout</text>
<text text-anchor="start" x="249" y="-439.9" font-family="Times,serif" font-size="14.00">_run_process_action_callbacks</text>
</g>
<!-- TareasController -->
<g id="node4" class="node"><title>TareasController</title>
<polyline fill="none" stroke="black" points="517,-121.5 702,-121.5 "/>
<path fill="none" stroke="black" d="M702,-121.5C708,-121.5 714,-127.5 714,-133.5"/>
<polyline fill="none" stroke="black" points="714,-133.5 714,-337.5 "/>
<path fill="none" stroke="black" d="M714,-337.5C714,-343.5 708,-349.5 702,-349.5"/>
<polyline fill="none" stroke="black" points="702,-349.5 517,-349.5 "/>
<path fill="none" stroke="black" d="M517,-349.5C511,-349.5 505,-343.5 505,-337.5"/>
<polyline fill="none" stroke="black" points="505,-337.5 505,-133.5 "/>
<path fill="none" stroke="black" d="M505,-133.5C505,-127.5 511,-121.5 517,-121.5"/>
<text text-anchor="middle" x="609.5" y="-332.9" font-family="Times,serif" font-size="14.00">TareasController</text>
<polyline fill="none" stroke="black" points="505,-326.5 714,-326.5 "/>
<text text-anchor="start" x="513" y="-309.9" font-family="Times,serif" font-size="14.00">_one_time_conditions_valid_12?</text>
<text text-anchor="start" x="513" y="-294.9" font-family="Times,serif" font-size="14.00">_one_time_conditions_valid_14?</text>
<text text-anchor="start" x="513" y="-279.9" font-family="Times,serif" font-size="14.00">create</text>
<text text-anchor="start" x="513" y="-264.9" font-family="Times,serif" font-size="14.00">destroy</text>
<text text-anchor="start" x="513" y="-249.9" font-family="Times,serif" font-size="14.00">edit</text>
<text text-anchor="start" x="513" y="-234.9" font-family="Times,serif" font-size="14.00">index</text>
<text text-anchor="start" x="513" y="-219.9" font-family="Times,serif" font-size="14.00">new</text>
<text text-anchor="start" x="513" y="-204.9" font-family="Times,serif" font-size="14.00">show</text>
<text text-anchor="start" x="513" y="-189.9" font-family="Times,serif" font-size="14.00">update</text>
<polyline fill="none" stroke="black" points="505,-183.5 714,-183.5 "/>
<polyline fill="none" stroke="black" points="505,-159.5 714,-159.5 "/>
<text text-anchor="start" x="513" y="-142.9" font-family="Times,serif" font-size="14.00">_layout</text>
<text text-anchor="start" x="513" y="-127.9" font-family="Times,serif" font-size="14.00">_run_process_action_callbacks</text>
</g>
<!-- UserstoriesController -->
<g id="node5" class="node"><title>UserstoriesController</title>
<polyline fill="none" stroke="black" points="517,-385.5 701,-385.5 "/>
<path fill="none" stroke="black" d="M701,-385.5C707,-385.5 713,-391.5 713,-397.5"/>
<polyline fill="none" stroke="black" points="713,-397.5 713,-601.5 "/>
<path fill="none" stroke="black" d="M713,-601.5C713,-607.5 707,-613.5 701,-613.5"/>
<polyline fill="none" stroke="black" points="701,-613.5 517,-613.5 "/>
<path fill="none" stroke="black" d="M517,-613.5C511,-613.5 505,-607.5 505,-601.5"/>
<polyline fill="none" stroke="black" points="505,-601.5 505,-397.5 "/>
<path fill="none" stroke="black" d="M505,-397.5C505,-391.5 511,-385.5 517,-385.5"/>
<text text-anchor="middle" x="609" y="-596.9" font-family="Times,serif" font-size="14.00">UserstoriesController</text>
<polyline fill="none" stroke="black" points="505,-590.5 713,-590.5 "/>
<text text-anchor="start" x="513" y="-573.9" font-family="Times,serif" font-size="14.00">_one_time_conditions_valid_16?</text>
<text text-anchor="start" x="513" y="-558.9" font-family="Times,serif" font-size="14.00">_one_time_conditions_valid_18?</text>
<text text-anchor="start" x="513" y="-543.9" font-family="Times,serif" font-size="14.00">create</text>
<text text-anchor="start" x="513" y="-528.9" font-family="Times,serif" font-size="14.00">destroy</text>
<text text-anchor="start" x="513" y="-513.9" font-family="Times,serif" font-size="14.00">edit</text>
<text text-anchor="start" x="513" y="-498.9" font-family="Times,serif" font-size="14.00">index</text>
<text text-anchor="start" x="513" y="-483.9" font-family="Times,serif" font-size="14.00">new</text>
<text text-anchor="start" x="513" y="-468.9" font-family="Times,serif" font-size="14.00">show</text>
<text text-anchor="start" x="513" y="-453.9" font-family="Times,serif" font-size="14.00">update</text>
<polyline fill="none" stroke="black" points="505,-447.5 713,-447.5 "/>
<polyline fill="none" stroke="black" points="505,-423.5 713,-423.5 "/>
<text text-anchor="start" x="513" y="-406.9" font-family="Times,serif" font-size="14.00">_layout</text>
<text text-anchor="start" x="513" y="-391.9" font-family="Times,serif" font-size="14.00">_run_process_action_callbacks</text>
</g>
<!-- UsuariosController -->
<g id="node6" class="node"><title>UsuariosController</title>
<polyline fill="none" stroke="black" points="253,-121.5 438,-121.5 "/>
<path fill="none" stroke="black" d="M438,-121.5C444,-121.5 450,-127.5 450,-133.5"/>
<polyline fill="none" stroke="black" points="450,-133.5 450,-367.5 "/>
<path fill="none" stroke="black" d="M450,-367.5C450,-373.5 444,-379.5 438,-379.5"/>
<polyline fill="none" stroke="black" points="438,-379.5 253,-379.5 "/>
<path fill="none" stroke="black" d="M253,-379.5C247,-379.5 241,-373.5 241,-367.5"/>
<polyline fill="none" stroke="black" points="241,-367.5 241,-133.5 "/>
<path fill="none" stroke="black" d="M241,-133.5C241,-127.5 247,-121.5 253,-121.5"/>
<text text-anchor="middle" x="345.5" y="-362.9" font-family="Times,serif" font-size="14.00">UsuariosController</text>
<polyline fill="none" stroke="black" points="241,-356.5 450,-356.5 "/>
<text text-anchor="start" x="249" y="-339.9" font-family="Times,serif" font-size="14.00">_one_time_conditions_valid_20?</text>
<text text-anchor="start" x="249" y="-324.9" font-family="Times,serif" font-size="14.00">_one_time_conditions_valid_24?</text>
<text text-anchor="start" x="249" y="-309.9" font-family="Times,serif" font-size="14.00">create</text>
<text text-anchor="start" x="249" y="-294.9" font-family="Times,serif" font-size="14.00">destroy</text>
<text text-anchor="start" x="249" y="-279.9" font-family="Times,serif" font-size="14.00">edit</text>
<text text-anchor="start" x="249" y="-264.9" font-family="Times,serif" font-size="14.00">index</text>
<text text-anchor="start" x="249" y="-249.9" font-family="Times,serif" font-size="14.00">login</text>
<text text-anchor="start" x="249" y="-234.9" font-family="Times,serif" font-size="14.00">logout</text>
<text text-anchor="start" x="249" y="-219.9" font-family="Times,serif" font-size="14.00">new</text>
<text text-anchor="start" x="249" y="-204.9" font-family="Times,serif" font-size="14.00">show</text>
<text text-anchor="start" x="249" y="-189.9" font-family="Times,serif" font-size="14.00">update</text>
<polyline fill="none" stroke="black" points="241,-183.5 450,-183.5 "/>
<polyline fill="none" stroke="black" points="241,-159.5 450,-159.5 "/>
<text text-anchor="start" x="249" y="-142.9" font-family="Times,serif" font-size="14.00">_layout</text>
<text text-anchor="start" x="249" y="-127.9" font-family="Times,serif" font-size="14.00">_run_process_action_callbacks</text>
</g>
</g>
</svg>
