<?xml version="1.0" encoding="UTF-8" standalone="no"?>
<!DOCTYPE svg PUBLIC "-//W3C//DTD SVG 1.1//EN"
 "http://www.w3.org/Graphics/SVG/1.1/DTD/svg11.dtd">
<!-- Generated by graphviz version 2.26.3 (20100126.1600)
 -->
<!-- Title: models_diagram Pages: 1 -->
<svg width="359pt" height="302pt"
 viewBox="0.00 0.00 359.00 302.00" xmlns="http://www.w3.org/2000/svg" xmlns:xlink="http://www.w3.org/1999/xlink">
<g id="graph1" class="graph" transform="scale(1 1) rotate(0) translate(4 298)">
<title>models_diagram</title>
<polygon fill="white" stroke="white" points="-4,5 -4,-298 356,-298 356,5 -4,5"/>
<!-- _diagram_info -->
<g id="node1" class="node"><title>_diagram_info</title>
<text text-anchor="start" x="7.5" y="-278.3" font-family="Times,serif" font-size="13.00">Models diagram</text>
<text text-anchor="start" x="7.5" y="-264.3" font-family="Times,serif" font-size="13.00">Date: Sep 11 2011 &#45; 14:19</text>
<text text-anchor="start" x="7.5" y="-250.3" font-family="Times,serif" font-size="13.00">Migration version: 20110716215721</text>
<text text-anchor="start" x="7.5" y="-236.3" font-family="Times,serif" font-size="13.00">Generated by RailRoady 1.0.2</text>
<text text-anchor="start" x="7.5" y="-222.3" font-family="Times,serif" font-size="13.00">http://railroady.prestonlee.com</text>
</g>
<!-- Proyecto -->
<g id="node2" class="node"><title>Proyecto</title>
<ellipse fill="none" stroke="black" cx="277" cy="-255" rx="44.846" ry="18"/>
<text text-anchor="middle" x="277" y="-249.9" font-family="Times,serif" font-size="14.00">Proyecto</text>
</g>
<!-- Userstory -->
<g id="node4" class="node"><title>Userstory</title>
<ellipse fill="none" stroke="black" cx="277" cy="-90" rx="46.7958" ry="18"/>
<text text-anchor="middle" x="277" y="-84.9" font-family="Times,serif" font-size="14.00">Userstory</text>
</g>
<!-- Proyecto&#45;&gt;Userstory -->
<g id="edge2" class="edge"><title>Proyecto&#45;&gt;Userstory</title>
<path fill="none" stroke="black" d="M269.543,-229.163C263.998,-206.665 258.024,-173.173 262,-144 263.177,-135.364 265.367,-126.16 267.717,-117.843"/>
<ellipse fill="none" stroke="black" cx="270.547" cy="-233.053" rx="4.00001" ry="4.00001"/>
<polygon fill="black" stroke="black" points="267.726,-117.812 274.915,-109.531 269.166,-113.024 270.605,-108.235 270.605,-108.235 270.605,-108.235 269.166,-113.024 266.296,-106.94 267.726,-117.812 267.726,-117.812"/>
</g>
<!-- Usuario -->
<g id="node5" class="node"><title>Usuario</title>
<ellipse fill="none" stroke="black" cx="311" cy="-162" rx="39.7989" ry="18"/>
<text text-anchor="middle" x="311" y="-156.9" font-family="Times,serif" font-size="14.00">Usuario</text>
</g>
<!-- Proyecto&#45;&gt;Usuario -->
<g id="edge4" class="edge"><title>Proyecto&#45;&gt;Usuario</title>
<path fill="none" stroke="black" d="M286.407,-229.27C290.937,-216.879 296.372,-202.011 300.98,-189.408"/>
<ellipse fill="none" stroke="black" cx="284.929" cy="-233.312" rx="4.00001" ry="4.00001"/>
<polygon fill="black" stroke="black" points="301.031,-189.268 308.691,-181.421 302.748,-184.572 304.465,-179.876 304.465,-179.876 304.465,-179.876 302.748,-184.572 300.238,-178.331 301.031,-189.268 301.031,-189.268"/>
</g>
<!-- Tarea -->
<g id="node3" class="node"><title>Tarea</title>
<ellipse fill="none" stroke="black" cx="277" cy="-18" rx="31.8472" ry="18"/>
<text text-anchor="middle" x="277" y="-12.9" font-family="Times,serif" font-size="14.00">Tarea</text>
</g>
<!-- Userstory&#45;&gt;Tarea -->
<g id="edge6" class="edge"><title>Userstory&#45;&gt;Tarea</title>
<path fill="none" stroke="black" d="M277,-63.8144C277,-58.2775 277,-52.4053 277,-46.7785"/>
<ellipse fill="none" stroke="black" cx="277" cy="-67.8314" rx="4" ry="4"/>
<polygon fill="black" stroke="black" points="277,-46.4133 281.5,-36.4132 277,-41.4133 277,-36.4133 277,-36.4133 277,-36.4133 277,-41.4133 272.5,-36.4133 277,-46.4133 277,-46.4133"/>
</g>
<!-- Usuario&#45;&gt;Userstory -->
<g id="edge8" class="edge"><title>Usuario&#45;&gt;Userstory</title>
<path fill="none" stroke="black" d="M299.116,-136.835C296.083,-130.411 292.81,-123.48 289.736,-116.971"/>
<ellipse fill="none" stroke="black" cx="300.887" cy="-140.585" rx="4.00002" ry="4.00002"/>
<polygon fill="black" stroke="black" points="289.696,-116.885 289.495,-105.921 287.561,-112.364 285.426,-107.843 285.426,-107.843 285.426,-107.843 287.561,-112.364 281.357,-109.764 289.696,-116.885 289.696,-116.885"/>
</g>
</g>
</svg>
