<?xml version="1.0" encoding="UTF-8" standalone="no"?>
<!DOCTYPE svg PUBLIC "-//W3C//DTD SVG 1.1//EN"
 "http://www.w3.org/Graphics/SVG/1.1/DTD/svg11.dtd">
<!-- Generated by graphviz version 2.26.3 (20100126.1600)
 -->
<!-- Title: models_diagram Pages: 1 -->
<svg width="445pt" height="652pt"
 viewBox="0.00 0.00 445.00 652.00" xmlns="http://www.w3.org/2000/svg" xmlns:xlink="http://www.w3.org/1999/xlink">
<g id="graph1" class="graph" transform="scale(1 1) rotate(0) translate(4 648)">
<title>models_diagram</title>
<polygon fill="white" stroke="white" points="-4,5 -4,-648 442,-648 442,5 -4,5"/>
<!-- _diagram_info -->
<g id="node1" class="node"><title>_diagram_info</title>
<text text-anchor="start" x="7.5" y="-598.3" font-family="Times,serif" font-size="13.00">Models diagram</text>
<text text-anchor="start" x="7.5" y="-584.3" font-family="Times,serif" font-size="13.00">Date: Sep 11 2011 &#45; 14:19</text>
<text text-anchor="start" x="7.5" y="-570.3" font-family="Times,serif" font-size="13.00">Migration version: 20110716215721</text>
<text text-anchor="start" x="7.5" y="-556.3" font-family="Times,serif" font-size="13.00">Generated by RailRoady 1.0.2</text>
<text text-anchor="start" x="7.5" y="-542.3" font-family="Times,serif" font-size="13.00">http://railroady.prestonlee.com</text>
</g>
<!-- Proyecto -->
<g id="node2" class="node"><title>Proyecto</title>
<polyline fill="none" stroke="black" points="244,-507 372,-507 "/>
<path fill="none" stroke="black" d="M372,-507C378,-507 384,-513 384,-519"/>
<polyline fill="none" stroke="black" points="384,-519 384,-631 "/>
<path fill="none" stroke="black" d="M384,-631C384,-637 378,-643 372,-643"/>
<polyline fill="none" stroke="black" points="372,-643 244,-643 "/>
<path fill="none" stroke="black" d="M244,-643C238,-643 232,-637 232,-631"/>
<polyline fill="none" stroke="black" points="232,-631 232,-519 "/>
<path fill="none" stroke="black" d="M232,-519C232,-513 238,-507 244,-507"/>
<text text-anchor="middle" x="308" y="-626.4" font-family="Times,serif" font-size="14.00">Proyecto</text>
<polyline fill="none" stroke="black" points="232,-620 384,-620 "/>
<text text-anchor="start" x="240" y="-603.4" font-family="Times,serif" font-size="14.00">nombre :string</text>
<text text-anchor="start" x="240" y="-588.4" font-family="Times,serif" font-size="14.00">descripcion :string</text>
<text text-anchor="start" x="240" y="-573.4" font-family="Times,serif" font-size="14.00">fecha_comienzo :date</text>
<text text-anchor="start" x="240" y="-558.4" font-family="Times,serif" font-size="14.00">fecha_entrega :date</text>
<text text-anchor="start" x="240" y="-543.4" font-family="Times,serif" font-size="14.00">duracion_sprint :integer</text>
<text text-anchor="start" x="240" y="-528.4" font-family="Times,serif" font-size="14.00">created_at :datetime</text>
<text text-anchor="start" x="240" y="-513.4" font-family="Times,serif" font-size="14.00">updated_at :datetime</text>
</g>
<!-- Userstory -->
<g id="node4" class="node"><title>Userstory</title>
<polyline fill="none" stroke="black" points="250.5,-159 363.5,-159 "/>
<path fill="none" stroke="black" d="M363.5,-159C369.5,-159 375.5,-165 375.5,-171"/>
<polyline fill="none" stroke="black" points="375.5,-171 375.5,-283 "/>
<path fill="none" stroke="black" d="M375.5,-283C375.5,-289 369.5,-295 363.5,-295"/>
<polyline fill="none" stroke="black" points="363.5,-295 250.5,-295 "/>
<path fill="none" stroke="black" d="M250.5,-295C244.5,-295 238.5,-289 238.5,-283"/>
<polyline fill="none" stroke="black" points="238.5,-283 238.5,-171 "/>
<path fill="none" stroke="black" d="M238.5,-171C238.5,-165 244.5,-159 250.5,-159"/>
<text text-anchor="middle" x="307" y="-278.4" font-family="Times,serif" font-size="14.00">Userstory</text>
<polyline fill="none" stroke="black" points="238.5,-272 375.5,-272 "/>
<text text-anchor="start" x="246.5" y="-255.4" font-family="Times,serif" font-size="14.00">titulo :string</text>
<text text-anchor="start" x="246.5" y="-240.4" font-family="Times,serif" font-size="14.00">descripcion :text</text>
<text text-anchor="start" x="246.5" y="-225.4" font-family="Times,serif" font-size="14.00">prioridad :integer</text>
<text text-anchor="start" x="246.5" y="-210.4" font-family="Times,serif" font-size="14.00">sprint :integer</text>
<text text-anchor="start" x="246.5" y="-195.4" font-family="Times,serif" font-size="14.00">complejidad :integer</text>
<text text-anchor="start" x="246.5" y="-180.4" font-family="Times,serif" font-size="14.00">created_at :datetime</text>
<text text-anchor="start" x="246.5" y="-165.4" font-family="Times,serif" font-size="14.00">updated_at :datetime</text>
</g>
<!-- Proyecto&#45;&gt;Userstory -->
<g id="edge2" class="edge"><title>Proyecto&#45;&gt;Userstory</title>
<path fill="none" stroke="black" d="M280.364,-499.123C277.746,-489.431 275.509,-479.558 274,-470 264.436,-409.417 264.698,-392.624 274,-332 275.362,-323.123 277.336,-313.966 279.652,-304.932"/>
<ellipse fill="none" stroke="black" cx="281.455" cy="-502.997" rx="4.00001" ry="4.00001"/>
<polygon fill="black" stroke="black" points="279.675,-304.849 286.63,-296.371 280.98,-300.022 282.286,-295.196 282.286,-295.196 282.286,-295.196 280.98,-300.022 277.942,-294.02 279.675,-304.849 279.675,-304.849"/>
</g>
<!-- Usuario -->
<g id="node5" class="node"><title>Usuario</title>
<polyline fill="none" stroke="black" points="294.5,-333 425.5,-333 "/>
<path fill="none" stroke="black" d="M425.5,-333C431.5,-333 437.5,-339 437.5,-345"/>
<polyline fill="none" stroke="black" points="437.5,-345 437.5,-457 "/>
<path fill="none" stroke="black" d="M437.5,-457C437.5,-463 431.5,-469 425.5,-469"/>
<polyline fill="none" stroke="black" points="425.5,-469 294.5,-469 "/>
<path fill="none" stroke="black" d="M294.5,-469C288.5,-469 282.5,-463 282.5,-457"/>
<polyline fill="none" stroke="black" points="282.5,-457 282.5,-345 "/>
<path fill="none" stroke="black" d="M282.5,-345C282.5,-339 288.5,-333 294.5,-333"/>
<text text-anchor="middle" x="360" y="-452.4" font-family="Times,serif" font-size="14.00">Usuario</text>
<polyline fill="none" stroke="black" points="282.5,-446 437.5,-446 "/>
<text text-anchor="start" x="290.5" y="-429.4" font-family="Times,serif" font-size="14.00">username :string</text>
<text text-anchor="start" x="290.5" y="-414.4" font-family="Times,serif" font-size="14.00">hashed_password :string</text>
<text text-anchor="start" x="290.5" y="-399.4" font-family="Times,serif" font-size="14.00">nombre :string</text>
<text text-anchor="start" x="290.5" y="-384.4" font-family="Times,serif" font-size="14.00">email :string</text>
<text text-anchor="start" x="290.5" y="-369.4" font-family="Times,serif" font-size="14.00">rol :string</text>
<text text-anchor="start" x="290.5" y="-354.4" font-family="Times,serif" font-size="14.00">created_at :datetime</text>
<text text-anchor="start" x="290.5" y="-339.4" font-family="Times,serif" font-size="14.00">updated_at :datetime</text>
</g>
<!-- Proyecto&#45;&gt;Usuario -->
<g id="edge4" class="edge"><title>Proyecto&#45;&gt;Usuario</title>
<path fill="none" stroke="black" d="M330.761,-498.837C332.75,-492.181 334.765,-485.44 336.758,-478.772"/>
<ellipse fill="none" stroke="black" cx="329.548" cy="-502.897" rx="4.00001" ry="4.00001"/>
<polygon fill="black" stroke="black" points="336.793,-478.654 343.968,-470.362 338.225,-473.864 339.656,-469.073 339.656,-469.073 339.656,-469.073 338.225,-473.864 335.345,-467.785 336.793,-478.654 336.793,-478.654"/>
</g>
<!-- Tarea -->
<g id="node3" class="node"><title>Tarea</title>
<polyline fill="none" stroke="black" points="234.5,-0.5 379.5,-0.5 "/>
<path fill="none" stroke="black" d="M379.5,-0.5C385.5,-0.5 391.5,-6.5 391.5,-12.5"/>
<polyline fill="none" stroke="black" points="391.5,-12.5 391.5,-109.5 "/>
<path fill="none" stroke="black" d="M391.5,-109.5C391.5,-115.5 385.5,-121.5 379.5,-121.5"/>
<polyline fill="none" stroke="black" points="379.5,-121.5 234.5,-121.5 "/>
<path fill="none" stroke="black" d="M234.5,-121.5C228.5,-121.5 222.5,-115.5 222.5,-109.5"/>
<polyline fill="none" stroke="black" points="222.5,-109.5 222.5,-12.5 "/>
<path fill="none" stroke="black" d="M222.5,-12.5C222.5,-6.5 228.5,-0.5 234.5,-0.5"/>
<text text-anchor="middle" x="307" y="-104.9" font-family="Times,serif" font-size="14.00">Tarea</text>
<polyline fill="none" stroke="black" points="222.5,-98.5 391.5,-98.5 "/>
<text text-anchor="start" x="230.5" y="-81.9" font-family="Times,serif" font-size="14.00">titulo :string</text>
<text text-anchor="start" x="230.5" y="-66.9" font-family="Times,serif" font-size="14.00">descripcion :text</text>
<text text-anchor="start" x="230.5" y="-51.9" font-family="Times,serif" font-size="14.00">porcentaje_avance :integer</text>
<text text-anchor="start" x="230.5" y="-36.9" font-family="Times,serif" font-size="14.00">horas_dedicadas :integer</text>
<text text-anchor="start" x="230.5" y="-21.9" font-family="Times,serif" font-size="14.00">created_at :datetime</text>
<text text-anchor="start" x="230.5" y="-6.9" font-family="Times,serif" font-size="14.00">updated_at :datetime</text>
</g>
<!-- Userstory&#45;&gt;Tarea -->
<g id="edge6" class="edge"><title>Userstory&#45;&gt;Tarea</title>
<path fill="none" stroke="black" d="M307,-150.443C307,-144.25 307,-138.01 307,-131.861"/>
<ellipse fill="none" stroke="black" cx="307" cy="-154.523" rx="4" ry="4"/>
<polygon fill="black" stroke="black" points="307,-131.622 311.5,-121.622 307,-126.622 307,-121.622 307,-121.622 307,-121.622 307,-126.622 302.5,-121.622 307,-131.622 307,-131.622"/>
</g>
<!-- Usuario&#45;&gt;Userstory -->
<g id="edge8" class="edge"><title>Usuario&#45;&gt;Userstory</title>
<path fill="none" stroke="black" d="M336.801,-324.837C334.774,-318.181 332.72,-311.44 330.689,-304.772"/>
<ellipse fill="none" stroke="black" cx="338.04" cy="-328.904" rx="4.00001" ry="4.00001"/>
<polygon fill="black" stroke="black" points="330.649,-304.639 332.04,-293.762 329.192,-299.856 327.735,-295.073 327.735,-295.073 327.735,-295.073 329.192,-299.856 323.43,-296.384 330.649,-304.639 330.649,-304.639"/>
</g>
</g>
</svg>
